<svg width="860" height="14" viewBox="0 0 860 14" fill="none" xmlns="http://www.w3.org/2000/svg">
<path d="M0 13H12.8153L23.7999 1H74.6035L85.5881 13H115.338L126.323 1H177.584L188.568 13H217.861L228.845 1H280.106L291.091 13H320.383L331.368 1H382.171L393.156 13H422.448L433.433 1H485.152L496.136 13H524.971L535.955 1H587.674L598.659 13H627.951L638.936 1H690.197L701.181 13H730.931L741.916 1H792.72L803.704 13H832.539L843.523 1H860" stroke="#EFEFEF" stroke-width="2"/>
<path d="M0 13H12.8235L23.8151 1H74.6513L85.6429 13H115.412L126.403 1H177.697L188.689 13H218" stroke="#EA4B43" stroke-width="2"/>
</svg>
