<svg width="7" height="371" viewBox="0 0 7 371" fill="none" xmlns="http://www.w3.org/2000/svg">
<path d="M1.00002 -2.18556e-07L1.00002 5.52847L6 10.2672L6 32.1836L1.00001 36.9223L1.00001 49.7563L6 54.4949L6 76.6088L1.00001 81.3475L1.00001 93.984L6 98.7227L5.99999 120.837L1.00001 125.575L1.00001 138.212L5.99999 142.951L5.99999 164.867L1.00001 169.606L1.00001 182.242L5.99999 186.981L5.99999 209.292L1.00001 214.031L1.00001 226.47L5.99999 231.209L5.99999 253.52L1 258.259L1 270.895L5.99999 275.634L5.99999 297.748L1 302.486L1 315.32L5.99999 320.059L5.99999 341.976L1 346.714L1 359.153L5.99998 363.892L5.99998 371" stroke="#EFEFEF"/>
<path d="M1 -2.18557e-07L1 5.52941L6 10.2689L6 32.1891L1 36.9286L1 49.7647L6 54.5042L6 76.6218L1 81.3613L1 94" stroke="#EA4B43"/>
</svg>
